<svg width="104" height="22" viewBox="0 0 104 22" fill="none" xmlns="http://www.w3.org/2000/svg">
<path d="M103.385 0.0621338C103.795 0.456287 104 0.964537 104 1.58689C104 2.10551 103.881 2.6345 103.644 3.17387L97.8501 14.4695V21.8443H95.1637V15.1541L88.6904 0.0621338H91.4416L97.6235 14.0961L103.255 3.17387C103.493 2.65525 103.611 2.11588 103.611 1.55577C103.611 0.995655 103.449 0.560013 103.126 0.248839L103.385 0.0621338Z" fill="black"/>
<path d="M81.11 21.8443H78.4236V0.373307H72.8242V0.0621338H86.7417V0.373307H81.11V21.8443Z" fill="black"/>
<path d="M69.7204 1.36918C67.7569 0.643107 65.9012 0.280072 64.1535 0.280072C62.4273 0.280072 61.0787 0.632735 60.1077 1.33806C59.1367 2.04339 58.6512 3.0184 58.6512 4.26309C58.6512 5.77747 59.4712 6.94956 61.1111 7.77935C61.8447 8.13202 62.6431 8.46394 63.5061 8.77511C64.3908 9.06554 65.2755 9.39746 66.1602 9.77087C67.0449 10.1443 67.854 10.5695 68.5876 11.0467C69.3213 11.5238 69.9146 12.1876 70.3678 13.0382C70.8209 13.868 71.0475 14.9363 71.0475 16.2433C71.0475 17.5295 70.6699 18.6289 69.9147 19.5417C69.1594 20.4545 68.2424 21.0768 67.1635 21.4088C66.1062 21.7199 64.8655 21.8755 63.4414 21.8755C60.7874 21.8755 58.5218 21.2428 56.6445 19.9774L56.8064 19.7284C57.5184 20.2678 58.4355 20.7138 59.5575 21.0665C60.7011 21.3984 61.8663 21.5643 63.053 21.5643C64.8008 21.5643 66.2896 21.1806 67.5196 20.413C68.771 19.6247 69.3968 18.4734 69.3968 16.959C69.3968 15.2994 68.5768 14.0028 66.937 13.0693C66.2033 12.6544 65.3942 12.2706 64.5095 11.918C63.6464 11.5653 62.7725 11.2023 61.8878 10.8289C61.0032 10.4347 60.194 9.99906 59.4604 9.52193C57.8205 8.48468 57.0006 7.01179 57.0006 5.10326C57.0006 3.58888 57.5292 2.36493 58.5865 1.43141C59.6438 0.477148 61.2297 1.52588e-05 63.3443 1.52588e-05C65.4805 1.52588e-05 67.649 0.352678 69.8499 1.058L69.7204 1.36918Z" fill="black"/>
<path d="M47.4736 0.373307V0.0621338H53.2348V0.373307H51.6489V21.5331H53.2348V21.8443H47.4736V21.5331H48.9625V0.373307H47.4736Z" fill="black"/>
<path d="M28.667 0.311073C31.17 0.145114 33.3817 0.0621338 35.3021 0.0621338C40.6317 0.0621338 43.2965 1.77359 43.2965 5.1965C43.2965 6.64864 42.9297 7.9452 42.196 9.08617C41.4624 10.2271 40.2001 10.9843 38.4092 11.3577L44.8824 21.8443H41.8724L35.5286 11.5444H31.3534V21.8443H28.667V0.311073ZM35.3021 0.373307C34.0506 0.373307 32.7343 0.445915 31.3534 0.591129V11.2333H36.1436C39.186 11.1088 40.7072 9.11729 40.7072 5.25873C40.7072 3.68212 40.2541 2.47892 39.3478 1.64912C38.4416 0.798578 37.093 0.373307 35.3021 0.373307Z" fill="black"/>
<path d="M24.8248 0.0621338C25.2348 0.456287 25.4398 0.964537 25.4398 1.58689C25.4398 2.10551 25.3211 2.6345 25.0838 3.17387L17.4454 21.8443L17.0893 21.9999L12.817 8.9617L7.54131 21.8443L7.18528 21.9999L0 0.0621338H2.75112L8.54466 18.4836L12.6552 8.46382L9.90404 0.0621338H12.6552L18.4487 18.4836L24.6954 3.17387C24.9327 2.65525 25.0514 2.11588 25.0514 1.55577C25.0514 0.995655 24.8896 0.560013 24.5659 0.248839L24.8248 0.0621338Z" fill="black"/>
</svg>
