<svg width="22" height="22" viewBox="0 0 22 22" fill="none" xmlns="http://www.w3.org/2000/svg">
<path fill-rule="evenodd" clip-rule="evenodd" d="M17.967 5.92808L16.4087 3.85C15.8889 3.15792 15.074 2.75 14.2087 2.75H7.79199C6.92666 2.75 6.11174 3.15792 5.59199 3.85L4.03366 5.92808C3.79533 6.24525 3.66699 6.63117 3.66699 7.02808V16.5C3.66699 18.0189 4.89808 19.25 6.41699 19.25H15.5837C17.1026 19.25 18.3337 18.0189 18.3337 16.5V7.02808C18.3337 6.63117 18.2053 6.24525 17.967 5.92808Z" stroke="black" stroke-linecap="round" stroke-linejoin="round"/>
<path d="M13.75 9.16667C13.75 10.6856 12.5189 11.9167 11 11.9167C9.48108 11.9167 8.25 10.6856 8.25 9.16667" stroke="black" stroke-linecap="round" stroke-linejoin="round"/>
<path d="M18.224 6.41667H3.77734" stroke="black" stroke-linecap="round" stroke-linejoin="round"/>
</svg>
