<svg width="14" height="10" viewBox="0 0 14 10" fill="none" xmlns="http://www.w3.org/2000/svg">
<path d="M12.9226 2.51631C12.9226 2.51631 12.8045 1.67981 12.4409 1.3125C11.9805 0.82908 11.4657 0.82671 11.2297 0.798274C9.53913 0.675049 7.00091 0.675049 7.00091 0.675049H6.99618C6.99618 0.675049 4.45799 0.675049 2.76743 0.798274C2.53132 0.82671 2.0166 0.82908 1.55619 1.3125C1.19257 1.67981 1.07688 2.51631 1.07688 2.51631C1.07688 2.51631 0.954102 3.49975 0.954102 4.48081V5.40026C0.954102 6.38132 1.07452 7.36475 1.07452 7.36475C1.07452 7.36475 1.19257 8.20124 1.55382 8.56853C2.01424 9.05201 2.61868 9.03537 2.88785 9.08749C3.8559 9.17994 6.99854 9.20838 6.99854 9.20838C6.99854 9.20838 9.53913 9.20362 11.2297 9.0828C11.4657 9.05436 11.9805 9.05201 12.4409 8.56853C12.8045 8.20124 12.9226 7.36475 12.9226 7.36475C12.9226 7.36475 13.043 6.38369 13.043 5.40026V4.48081C13.043 3.49975 12.9226 2.51631 12.9226 2.51631ZM5.74952 6.51639V3.10637L9.0149 4.81731L5.74952 6.51639Z" fill="white"/>
</svg>
