<svg width="120" height="32" viewBox="0 0 120 32" fill="none" xmlns="http://www.w3.org/2000/svg">
<g style="mix-blend-mode:luminosity" opacity="0.3">
<path d="M39.0908 23.3996V20.925H41.039V10.9414H39.0908V8.46687H46.7141C47.6176 8.46687 48.4011 8.6233 49.0646 8.93618C49.7422 9.23483 50.2645 9.66859 50.6316 10.2375C51.0127 10.7921 51.2033 11.4605 51.2033 12.2427V12.456C51.2033 13.1387 51.0762 13.7004 50.8221 14.1413C50.568 14.5679 50.2645 14.9021 49.9116 15.1439C49.5728 15.3715 49.2481 15.535 48.9375 15.6346V16.0185C49.2481 16.1039 49.5869 16.2674 49.9539 16.5092C50.321 16.7367 50.6316 17.0709 50.8857 17.5118C51.1539 17.9527 51.288 18.5287 51.288 19.2397V19.4531C51.288 20.2779 51.0974 20.989 50.7163 21.5863C50.3351 22.1694 49.8057 22.6174 49.1281 22.9302C48.4646 23.2431 47.6881 23.3996 46.7988 23.3996H39.0908ZM43.8342 20.8397H46.46C47.067 20.8397 47.554 20.6903 47.9211 20.3917C48.3022 20.093 48.4928 19.6664 48.4928 19.1117V18.8984C48.4928 18.3438 48.3093 17.9171 47.9422 17.6185C47.5752 17.3198 47.0811 17.1705 46.46 17.1705H43.8342V20.8397ZM43.8342 14.6106H46.4176C46.9964 14.6106 47.4693 14.4613 47.8364 14.1626C48.2175 13.864 48.4081 13.4515 48.4081 12.9253V12.712C48.4081 12.1716 48.2246 11.7592 47.8575 11.4747C47.4905 11.1761 47.0105 11.0268 46.4176 11.0268H43.8342V14.6106Z" fill="black"/>
<path d="M57.5997 23.6982C56.555 23.6982 55.6162 23.4849 54.7833 23.0582C53.9504 22.6316 53.294 22.013 52.814 21.2023C52.334 20.3917 52.094 19.4175 52.094 18.2798V17.9385C52.094 16.8007 52.334 15.8266 52.814 15.0159C53.294 14.2053 53.9504 13.5866 54.7833 13.16C55.6162 12.7334 56.555 12.52 57.5997 12.52C58.6443 12.52 59.5831 12.7334 60.416 13.16C61.2489 13.5866 61.9054 14.2053 62.3854 15.0159C62.8654 15.8266 63.1053 16.8007 63.1053 17.9385V18.2798C63.1053 19.4175 62.8654 20.3917 62.3854 21.2023C61.9054 22.013 61.2489 22.6316 60.416 23.0582C59.5831 23.4849 58.6443 23.6982 57.5997 23.6982ZM57.5997 21.309C58.4185 21.309 59.0961 21.0459 59.6325 20.5197C60.169 19.9793 60.4372 19.2113 60.4372 18.2158V18.0025C60.4372 17.0069 60.169 16.2461 59.6325 15.7199C59.1102 15.1795 58.4326 14.9093 57.5997 14.9093C56.7809 14.9093 56.1033 15.1795 55.5668 15.7199C55.0304 16.2461 54.7621 17.0069 54.7621 18.0025V18.2158C54.7621 19.2113 55.0304 19.9793 55.5668 20.5197C56.1033 21.0459 56.7809 21.309 57.5997 21.309Z" fill="black"/>
<path d="M64.5094 23.3996V8.46687H67.1775V23.3996H64.5094Z" fill="black"/>
<path d="M73.0988 23.3996C72.407 23.3996 71.8423 23.1862 71.4047 22.7596C70.9812 22.3187 70.7694 21.7356 70.7694 21.0103V15.0373H68.1437V12.8187H70.7694V9.53349H73.4376V12.8187H76.3175V15.0373H73.4376V20.541C73.4376 20.9677 73.6352 21.181 74.0305 21.181H76.0634V23.3996H73.0988Z" fill="black"/>
<path d="M82.0361 23.6982C80.6667 23.6982 79.5444 23.3996 78.6691 22.8023C77.7939 22.2049 77.2645 21.3516 77.0809 20.2424L79.5373 19.6024C79.6361 20.1001 79.7985 20.4912 80.0244 20.7757C80.2644 21.0601 80.5538 21.2663 80.8926 21.3943C81.2455 21.5081 81.6267 21.565 82.0361 21.565C82.6572 21.565 83.116 21.4583 83.4125 21.245C83.7089 21.0174 83.8572 20.7401 83.8572 20.413C83.8572 20.0859 83.716 19.837 83.4336 19.6664C83.1513 19.4815 82.6996 19.3322 82.0784 19.2184L81.4855 19.1117C80.7514 18.9695 80.0808 18.7775 79.4738 18.5358C78.8668 18.2798 78.3797 17.9314 78.0127 17.4905C77.6456 17.0496 77.4621 16.4807 77.4621 15.7839C77.4621 14.7315 77.8433 13.928 78.6056 13.3733C79.3679 12.8045 80.3702 12.52 81.6125 12.52C82.7843 12.52 83.7583 12.7831 84.5348 13.3093C85.3112 13.8355 85.8194 14.5253 86.0594 15.3786L83.5819 16.1465C83.4689 15.6061 83.236 15.2221 82.8831 14.9946C82.5443 14.767 82.1208 14.6533 81.6125 14.6533C81.1043 14.6533 80.7161 14.7457 80.4479 14.9306C80.1797 15.1012 80.0455 15.343 80.0455 15.6559C80.0455 15.9972 80.1867 16.2532 80.4691 16.4239C80.7514 16.5803 81.1326 16.7012 81.6125 16.7865L82.2055 16.8932C82.996 17.0354 83.7089 17.2274 84.3442 17.4691C84.9936 17.6967 85.5018 18.0309 85.8689 18.4718C86.25 18.8984 86.4406 19.4815 86.4406 20.221C86.4406 21.3303 86.0383 22.1907 85.2336 22.8023C84.443 23.3996 83.3772 23.6982 82.0361 23.6982Z" fill="black"/>
<path d="M87.7199 23.3996V8.46687H90.388V14.12H90.7692C90.8821 13.8924 91.0586 13.6649 91.2986 13.4373C91.5386 13.2098 91.8562 13.0249 92.2515 12.8827C92.6609 12.7262 93.1762 12.648 93.7973 12.648C94.6161 12.648 95.329 12.84 95.9361 13.224C96.5572 13.5938 97.0372 14.1128 97.376 14.7813C97.7148 15.4355 97.8842 16.2034 97.8842 17.0852V23.3996H95.2161V17.2985C95.2161 16.5021 95.0184 15.9048 94.6232 15.5066C94.242 15.1084 93.6914 14.9093 92.9715 14.9093C92.1527 14.9093 91.5174 15.1866 91.0657 15.7412C90.6139 16.2816 90.388 17.0425 90.388 18.0238V23.3996H87.7199Z" fill="black"/>
<path d="M99.7098 23.3996V12.8187H102.378V23.3996H99.7098ZM101.044 11.5814C100.564 11.5814 100.154 11.425 99.8157 11.1121C99.491 10.7992 99.3286 10.3868 99.3286 9.87481C99.3286 9.36283 99.491 8.9504 99.8157 8.63753C100.154 8.32465 100.564 8.16821 101.044 8.16821C101.538 8.16821 101.947 8.32465 102.272 8.63753C102.597 8.9504 102.759 9.36283 102.759 9.87481C102.759 10.3868 102.597 10.7992 102.272 11.1121C101.947 11.425 101.538 11.5814 101.044 11.5814Z" fill="black"/>
<path d="M106.012 23.3996V15.0373H103.344V12.8187H106.012V10.8561C106.012 10.1308 106.224 9.55482 106.647 9.12817C107.085 8.6873 107.65 8.46687 108.342 8.46687H111.094V10.6854H109.273C108.878 10.6854 108.68 10.8988 108.68 11.3254V12.8187H111.433V15.0373H108.68V23.3996H106.012Z" fill="black"/>
<path d="M116.257 23.3996C115.565 23.3996 115 23.1862 114.563 22.7596C114.139 22.3187 113.927 21.7356 113.927 21.0103V15.0373H111.301V12.8187H113.927V9.53349H116.595V12.8187H119.475V15.0373H116.595V20.541C116.595 20.9677 116.793 21.181 117.188 21.181H119.221V23.3996H116.257Z" fill="black"/>
<path fill-rule="evenodd" clip-rule="evenodd" d="M15.5288 32.0002C24.1052 32.0002 31.0576 24.9962 31.0576 16.3564C31.0576 7.71661 24.1052 0.712646 15.5288 0.712646C6.95247 0.712646 0 7.71661 0 16.3564C0 24.9962 6.95247 32.0002 15.5288 32.0002ZM20.3733 8.00018C20.6091 7.15636 19.7962 6.65739 19.0539 7.19019L8.69079 14.6275C7.8857 15.2053 8.01234 16.3564 8.88102 16.3564H11.6099V16.3351H16.9284L12.5948 17.8755L10.6844 24.7127C10.4486 25.5565 11.2614 26.0555 12.0038 25.5226L22.3669 18.0854C23.172 17.5076 23.0452 16.3564 22.1766 16.3564H18.0384L20.3733 8.00018Z" fill="#222222"/>
</g>
</svg>
