<svg width="121" height="32" viewBox="0 0 121 32" fill="none" xmlns="http://www.w3.org/2000/svg">
<g style="mix-blend-mode:luminosity" opacity="0.3">
<path d="M34.502 9.95703V21.8297H37.0893V16.9243H42.0169V14.8957H37.0893V12.152H42.775V9.95703H34.502Z" fill="#222222"/>
<path d="M49.2644 16.6084H45.4575C45.4685 16.4421 45.5015 16.2537 45.5564 16.043C45.6223 15.8324 45.7267 15.6329 45.8695 15.4444C46.0233 15.256 46.2211 15.1008 46.4628 14.9788C46.7155 14.8458 47.0286 14.7793 47.4022 14.7793C47.9735 14.7793 48.3965 14.9345 48.6712 15.2449C48.9568 15.5553 49.1546 16.0098 49.2644 16.6084ZM45.4575 18.105H51.6046C51.6486 17.4398 51.5936 16.8024 51.4398 16.1927C51.286 15.583 51.0333 15.0398 50.6817 14.5631C50.3411 14.0864 49.9017 13.7095 49.3633 13.4324C48.825 13.1441 48.1932 13 47.4681 13C46.8199 13 46.2266 13.1164 45.6882 13.3492C45.1609 13.582 44.7049 13.9035 44.3204 14.3137C43.9359 14.7128 43.6392 15.1894 43.4305 15.7437C43.2217 16.298 43.1173 16.8966 43.1173 17.5396C43.1173 18.2047 43.2162 18.8144 43.414 19.3687C43.6227 19.923 43.9139 20.3997 44.2874 20.7988C44.661 21.1979 45.1169 21.5083 45.6553 21.73C46.1936 21.9406 46.7979 22.0459 47.4681 22.0459C48.4349 22.0459 49.2589 21.8242 49.9401 21.3808C50.6213 20.9373 51.1267 20.2002 51.4563 19.1692H49.3963C49.3194 19.4352 49.1106 19.6902 48.77 19.9341C48.4294 20.1669 48.0229 20.2833 47.5505 20.2833C46.8913 20.2833 46.3859 20.1115 46.0343 19.7678C45.6828 19.4242 45.4905 18.8699 45.4575 18.105Z" fill="#222222"/>
<path d="M52.3993 15.8768C52.4322 15.3225 52.5696 14.8624 52.8113 14.4966C53.053 14.1308 53.3606 13.837 53.7342 13.6153C54.1077 13.3936 54.5252 13.2384 54.9867 13.1497C55.4591 13.0499 55.9315 13 56.404 13C56.8324 13 57.2664 13.0333 57.7059 13.0998C58.1454 13.1552 58.5464 13.2716 58.9089 13.449C59.2715 13.6264 59.5681 13.8758 59.7989 14.1973C60.0296 14.5077 60.1449 14.9234 60.1449 15.4444V19.9175C60.1449 20.3055 60.1669 20.6768 60.2109 21.0316C60.2548 21.3863 60.3317 21.6524 60.4416 21.8297H58.0685C58.0245 21.6967 57.986 21.5637 57.9531 21.4307C57.9311 21.2865 57.9146 21.1424 57.9036 20.9983C57.5301 21.3863 57.0906 21.6579 56.5852 21.8131C56.0798 21.9683 55.5635 22.0459 55.0361 22.0459C54.6296 22.0459 54.2505 21.996 53.899 21.8963C53.5474 21.7965 53.2398 21.6413 52.9761 21.4307C52.7124 21.22 52.5036 20.954 52.3498 20.6325C52.207 20.311 52.1356 19.9286 52.1356 19.4851C52.1356 18.9974 52.218 18.5983 52.3828 18.2879C52.5586 17.9664 52.7783 17.7114 53.042 17.523C53.3167 17.3345 53.6243 17.1959 53.9649 17.1073C54.3165 17.0075 54.668 16.9299 55.0196 16.8745C55.3712 16.819 55.7173 16.7747 56.0579 16.7414C56.3985 16.7082 56.7006 16.6583 56.9643 16.5918C57.228 16.5253 57.4367 16.431 57.5905 16.3091C57.7443 16.1761 57.8158 15.9876 57.8048 15.7437C57.8048 15.4888 57.7608 15.2892 57.6729 15.1451C57.596 14.9899 57.4862 14.8735 57.3433 14.7959C57.2115 14.7072 57.0522 14.6518 56.8654 14.6296C56.6896 14.5964 56.4973 14.5797 56.2886 14.5797C55.8271 14.5797 55.4646 14.6795 55.2009 14.8791C54.9372 15.0786 54.7834 15.4112 54.7395 15.8768H52.3993ZM57.8048 17.6227C57.7059 17.7114 57.5795 17.7835 57.4257 17.8389C57.2829 17.8833 57.1236 17.9221 56.9478 17.9553C56.783 17.9886 56.6072 18.0163 56.4204 18.0385C56.2337 18.0606 56.0469 18.0883 55.8601 18.1216C55.6843 18.1549 55.5085 18.1992 55.3327 18.2546C55.1679 18.3101 55.0196 18.3877 54.8878 18.4874C54.7669 18.5761 54.668 18.6925 54.5911 18.8366C54.5142 18.9807 54.4758 19.1636 54.4758 19.3854C54.4758 19.596 54.5142 19.7734 54.5911 19.9175C54.668 20.0616 54.7724 20.178 54.9043 20.2667C55.0361 20.3443 55.1899 20.3997 55.3657 20.433C55.5415 20.4662 55.7228 20.4828 55.9095 20.4828C56.371 20.4828 56.7281 20.4052 56.9808 20.25C57.2335 20.0948 57.4202 19.9119 57.5411 19.7013C57.6619 19.4796 57.7334 19.2579 57.7553 19.0362C57.7883 18.8144 57.8048 18.6371 57.8048 18.5041V17.6227Z" fill="#222222"/>
<path d="M64.4334 13.2328V10.6554H62.0932V13.2328H60.6759V14.8125H62.0932V19.8842C62.0932 20.3165 62.1646 20.6657 62.3075 20.9318C62.4503 21.1979 62.6425 21.4029 62.8843 21.5471C63.137 21.6912 63.4226 21.7854 63.7412 21.8297C64.0708 21.8852 64.4169 21.9129 64.7795 21.9129C65.0102 21.9129 65.2464 21.9073 65.4881 21.8963C65.7298 21.8852 65.9496 21.863 66.1473 21.8297V20.0006C66.0375 20.0228 65.9221 20.0394 65.8012 20.0505C65.6804 20.0616 65.554 20.0671 65.4222 20.0671C65.0267 20.0671 64.763 20.0006 64.6312 19.8676C64.4993 19.7346 64.4334 19.4685 64.4334 19.0694V14.8125H66.1473V13.2328H64.4334Z" fill="#222222"/>
<path d="M66.7664 9.95703V21.8297H69.1065V17.3234C69.1065 16.4477 69.2494 15.8213 69.535 15.4444C69.8207 15.0564 70.2821 14.8624 70.9194 14.8624C71.4797 14.8624 71.8697 15.0398 72.0895 15.3945C72.3092 15.7382 72.4191 16.2648 72.4191 16.9742V21.8297H74.7592V16.5419C74.7592 16.0098 74.7098 15.5276 74.6109 15.0952C74.523 14.6518 74.3637 14.2804 74.133 13.9811C73.9023 13.6707 73.5837 13.4324 73.1771 13.2661C72.7816 13.0887 72.2707 13 71.6445 13C71.205 13 70.7546 13.1164 70.2931 13.3492C69.8317 13.5709 69.4526 13.9312 69.156 14.4301H69.1065V9.95703H66.7664Z" fill="#222222"/>
<path d="M81.7761 16.6084H77.9691C77.9801 16.4421 78.0131 16.2537 78.068 16.043C78.1339 15.8324 78.2383 15.6329 78.3811 15.4444C78.535 15.256 78.7327 15.1008 78.9744 14.9788C79.2271 14.8458 79.5403 14.7793 79.9138 14.7793C80.4851 14.7793 80.9081 14.9345 81.1828 15.2449C81.4684 15.5553 81.6662 16.0098 81.7761 16.6084ZM77.9691 18.105H84.1162C84.1602 17.4398 84.1053 16.8024 83.9514 16.1927C83.7976 15.583 83.5449 15.0398 83.1934 14.5631C82.8528 14.0864 82.4133 13.7095 81.8749 13.4324C81.3366 13.1441 80.7048 13 79.9797 13C79.3315 13 78.7382 13.1164 78.1999 13.3492C77.6725 13.582 77.2165 13.9035 76.832 14.3137C76.4475 14.7128 76.1508 15.1894 75.9421 15.7437C75.7333 16.298 75.629 16.8966 75.629 17.5396C75.629 18.2047 75.7278 18.8144 75.9256 19.3687C76.1344 19.923 76.4255 20.3997 76.7991 20.7988C77.1726 21.1979 77.6286 21.5083 78.1669 21.73C78.7053 21.9406 79.3095 22.0459 79.9797 22.0459C80.9466 22.0459 81.7706 21.8242 82.4517 21.3808C83.1329 20.9373 83.6383 20.2002 83.9679 19.1692H81.9079C81.831 19.4352 81.6222 19.6902 81.2817 19.9341C80.9411 20.1669 80.5346 20.2833 80.0621 20.2833C79.4029 20.2833 78.8975 20.1115 78.5459 19.7678C78.1944 19.4242 78.0021 18.8699 77.9691 18.105Z" fill="#222222"/>
<path d="M85.0098 13.2328V21.8297H87.35V17.9553C87.35 17.5673 87.3884 17.207 87.4653 16.8745C87.5422 16.5419 87.6686 16.2537 87.8444 16.0098C88.0311 15.7548 88.2728 15.5553 88.5695 15.4112C88.8661 15.267 89.2287 15.195 89.6572 15.195C89.8 15.195 89.9483 15.2061 90.1021 15.2282C90.256 15.2393 90.3878 15.256 90.4977 15.2781V13.0832C90.3109 13.0278 90.1406 13 89.9868 13C89.6901 13 89.4045 13.0444 89.1298 13.1331C88.8551 13.2217 88.597 13.3492 88.3552 13.5155C88.1135 13.6707 87.8993 13.8647 87.7125 14.0975C87.5257 14.3192 87.3774 14.5631 87.2676 14.8292H87.2346V13.2328H85.0098Z" fill="#222222"/>
<path d="M93.7553 19.6348V12.152H95.6011C96.2383 12.152 96.7712 12.2462 97.1997 12.4347C97.6392 12.612 97.9907 12.8726 98.2544 13.2162C98.5181 13.5599 98.7049 13.9756 98.8147 14.4633C98.9356 14.94 98.996 15.4777 98.996 16.0763C98.996 16.7303 98.9136 17.2846 98.7488 17.7391C98.584 18.1937 98.3643 18.565 98.0896 18.8532C97.8149 19.1304 97.5018 19.3299 97.1502 19.4519C96.7987 19.5738 96.4361 19.6348 96.0626 19.6348H93.7553ZM91.1679 9.95703V21.8297H96.2438C97.1447 21.8297 97.9248 21.6801 98.584 21.3808C99.2542 21.0704 99.809 20.6491 100.249 20.117C100.699 19.5849 101.034 18.953 101.254 18.2214C101.474 17.4897 101.583 16.6915 101.583 15.8269C101.583 14.8403 101.446 13.9811 101.171 13.2495C100.908 12.5178 100.534 11.9081 100.051 11.4203C99.5783 10.9326 99.0125 10.5667 98.3533 10.3229C97.7051 10.079 97.0019 9.95703 96.2438 9.95703H91.1679Z" fill="#222222"/>
<path d="M108.377 16.6084H104.57C104.581 16.4421 104.614 16.2537 104.669 16.043C104.735 15.8324 104.839 15.6329 104.982 15.4444C105.136 15.256 105.333 15.1008 105.575 14.9788C105.828 14.8458 106.141 14.7793 106.514 14.7793C107.086 14.7793 107.509 14.9345 107.783 15.2449C108.069 15.5553 108.267 16.0098 108.377 16.6084ZM104.57 18.105H110.717C110.761 17.4398 110.706 16.8024 110.552 16.1927C110.398 15.583 110.146 15.0398 109.794 14.5631C109.453 14.0864 109.014 13.7095 108.476 13.4324C107.937 13.1441 107.305 13 106.58 13C105.932 13 105.339 13.1164 104.801 13.3492C104.273 13.582 103.817 13.9035 103.433 14.3137C103.048 14.7128 102.751 15.1894 102.543 15.7437C102.334 16.298 102.23 16.8966 102.23 17.5396C102.23 18.2047 102.328 18.8144 102.526 19.3687C102.735 19.923 103.026 20.3997 103.4 20.7988C103.773 21.1979 104.229 21.5083 104.768 21.73C105.306 21.9406 105.91 22.0459 106.58 22.0459C107.547 22.0459 108.371 21.8242 109.052 21.3808C109.734 20.9373 110.239 20.2002 110.569 19.1692H108.509C108.432 19.4352 108.223 19.6902 107.882 19.9341C107.542 20.1669 107.135 20.2833 106.663 20.2833C106.004 20.2833 105.498 20.1115 105.147 19.7678C104.795 19.4242 104.603 18.8699 104.57 18.105Z" fill="#222222"/>
<path d="M116.324 21.8297L119.208 13.2328H116.884L115.088 19.1027H115.055L113.258 13.2328H110.803L113.72 21.8297H116.324Z" fill="#222222"/>
<path d="M23.7421 7.78718C23.4786 7.52174 23.2151 7.2563 22.9516 6.99085C22.1612 6.14143 21.318 5.29201 20.264 4.76112C19.052 4.12406 17.7345 4.28332 16.417 4.28332C14.4145 4.28332 9.40814 4.28332 6.45703 4.28332L8.45957 6.99085C12.0958 6.99085 17.7872 6.99085 20.4221 6.99085C21.5288 6.99085 22.4774 7.20321 23.3732 7.78718C23.5313 7.84027 23.6894 7.84027 23.7421 7.78718Z" fill="black"/>
<path d="M25.9548 12.1407C25.6913 11.8752 25.4278 11.6098 25.1643 11.3444C24.3738 10.4949 23.5307 9.64552 22.4767 9.11463C21.2646 8.47757 19.9472 8.63684 18.6297 8.63684C16.8907 8.63684 12.7275 8.63684 9.77637 8.63684L11.7789 11.3444C15.3624 11.3444 20.2634 11.3444 22.6875 11.3444C23.7941 11.3444 24.7427 11.5567 25.6386 12.1407C25.744 12.1938 25.8494 12.1938 25.9548 12.1407Z" fill="black"/>
<path d="M28.4319 16.3887C28.1684 16.1233 27.9049 15.8579 27.6414 15.5924C26.8509 14.743 26.0077 13.8936 24.9538 13.3627C23.7417 12.7256 22.4242 12.8849 21.1068 12.8849C19.4731 12.8849 15.8896 12.8849 12.9912 12.8849L14.9937 15.5924C18.4718 15.5924 22.8985 15.5924 25.1119 15.5924C26.2185 15.5924 27.1671 15.8048 28.063 16.3887C28.2211 16.4418 28.3265 16.4949 28.4319 16.3887Z" fill="black"/>
<path d="M6.24609 23.5535C6.50959 23.8189 6.77308 24.0844 7.03657 24.3498C7.82705 25.1992 8.67022 26.0487 9.72419 26.5795C10.9362 27.2166 12.2537 27.0573 13.5712 27.0573H23.5312L21.5286 24.3498C17.8924 24.3498 12.201 24.3498 9.5661 24.3498C8.45943 24.3498 7.51085 24.1375 6.61498 23.5535C6.45689 23.5004 6.35149 23.5004 6.24609 23.5535Z" fill="black"/>
<path d="M4.0332 19.2039C4.2967 19.4693 4.56019 19.7348 4.82368 20.0002C5.61416 20.8496 6.45733 21.6991 7.51129 22.2299C8.72336 22.867 10.0408 22.7077 11.3583 22.7077H20.2116L18.2091 20.0002C14.6256 20.0002 9.72463 20.0002 7.3005 20.0002C6.19384 20.0002 5.24526 19.7879 4.34939 19.2039C4.24399 19.1508 4.1386 19.1508 4.0332 19.2039Z" fill="black"/>
<path d="M1.6084 14.8992C1.87189 15.1646 2.13538 15.4301 2.39888 15.6955C3.18935 16.5449 4.03253 17.3944 5.0865 17.9253C6.29857 18.5623 7.61602 18.4031 8.93349 18.4031H17.0491L15.0465 15.6955C11.5684 15.6955 7.14174 15.6955 4.9284 15.6955C3.82174 15.6955 2.87316 15.4832 1.97729 14.8992C1.81919 14.8461 1.7138 14.8461 1.6084 14.8992Z" fill="black"/>
</g>
</svg>
