<svg width="121" height="32" viewBox="0 0 121 32" fill="none" xmlns="http://www.w3.org/2000/svg">
<g style="mix-blend-mode:luminosity" opacity="0.3">
<path d="M45.1193 9.24609V19.3776L38.6725 9.24609H36.0938V23.2344H38.6725V13.1828L45.1193 23.2344H47.698V9.24609H45.1193Z" fill="#222222"/>
<path d="M48.86 11.8639H51.5181V9.24609H48.86V11.8639ZM48.8997 23.2344V13.2428H51.4784V23.2344H48.8997Z" fill="#222222"/>
<path d="M62.5736 18.2386C62.5736 14.7815 60.1338 13.1428 57.555 13.1229C54.9565 13.1029 52.5563 14.7815 52.5563 18.2386C52.5563 21.6957 54.9565 23.3743 57.555 23.3543C59.9156 23.3343 61.5421 22.2353 62.2959 20.4168L60.2925 19.5775C59.6775 20.8164 58.7055 21.2561 57.555 21.2761C56.5632 21.296 55.4325 20.8164 55.1945 19.0379H62.5141C62.5538 18.7781 62.5736 18.5184 62.5736 18.2386ZM57.555 15.1811C58.5469 15.2011 59.5585 15.7407 59.8759 17.1795H55.2342C55.5714 15.7207 56.583 15.1612 57.555 15.1811Z" fill="#222222"/>
<path d="M68.5332 15.1012V13.1229H66.9067V10.4451L64.3279 11.2444V13.1229H62.7013V15.1012H64.3279V20.2769C64.3279 22.2353 64.4866 23.2344 67.5017 23.2344H68.196V20.9563H67.5017C67.0257 20.9563 66.9067 20.8764 66.9067 20.2769V15.1012H68.5332Z" fill="#222222"/>
<path d="M72.3651 21.0562L77.8399 15.4209V13.2428H69.6277V15.4209H74.9438L69.469 21.0562V23.2344H77.8994V21.0562H72.3651Z" fill="#222222"/>
<path d="M78.824 20.4168L81.4226 20.0171C81.6011 21.0163 82.7714 21.396 83.4855 21.396C84.2195 21.396 85.489 21.2361 85.489 20.0371C85.489 17.699 79.1215 20.6166 79.1215 16.1403C79.1215 13.2627 82.4342 13.1029 83.4855 13.1029C84.4774 13.1029 87.3536 13.2627 87.9487 15.5808L85.489 16.1004C85.2708 15.0413 84.16 14.8414 83.5649 14.8414C82.9698 14.8414 81.7003 14.9813 81.7003 16.1403C81.7003 18.4584 88.0677 15.5009 88.0677 20.0371C88.0677 23.0945 84.5765 23.3543 83.4855 23.3543C82.4937 23.3543 79.3397 23.0945 78.824 20.4168Z" fill="#222222"/>
<path d="M91.4178 18.2386C91.4178 20.6766 92.7071 21.4159 94.056 21.396C95.266 21.376 96.0992 20.8764 96.5951 19.4776L98.7176 20.5167C97.944 22.555 96.0595 23.3343 94.056 23.3543C91.4575 23.3743 88.8391 21.6957 88.8391 18.2386C88.8391 14.7815 91.4575 13.1029 94.056 13.1229C96.0595 13.1428 97.944 13.9222 98.7176 15.9605L96.5951 16.9996C96.0992 15.6008 95.266 15.1012 94.056 15.0812C92.7071 15.0612 91.4178 15.8006 91.4178 18.2386Z" fill="#222222"/>
<path d="M105.64 13.0829C104.311 13.0829 103.101 13.7823 102.328 15.2811V9.24609H99.7489V23.2344H102.328V19.6974C102.328 15.1212 104.212 14.7415 104.906 14.7415C106.017 14.7415 106.176 15.9005 106.176 17.5991V23.2344H108.755V17.5991C108.755 15.4809 108.417 13.0829 105.64 13.0829Z" fill="#222222"/>
<path d="M119.642 18.2386C119.642 14.7815 117.202 13.1428 114.623 13.1229C112.025 13.1029 109.625 14.7815 109.625 18.2386C109.625 21.6957 112.025 23.3743 114.623 23.3543C116.984 23.3343 118.611 22.2353 119.364 20.4168L117.361 19.5775C116.746 20.8164 115.774 21.2561 114.623 21.2761C113.632 21.296 112.501 20.8164 112.263 19.0379H119.583C119.622 18.7781 119.642 18.5184 119.642 18.2386ZM114.623 15.1811C115.615 15.2011 116.627 15.7407 116.944 17.1795H112.303C112.64 15.7207 113.651 15.1612 114.623 15.1811Z" fill="#222222"/>
<path d="M19.095 3.55764L16.4486 2.8457L14.2185 11.202L12.205 3.65788L9.55853 4.36983L11.7339 12.5207L6.31552 7.08075L4.37819 9.02581L10.3215 14.9929L2.92005 13.0017L2.21094 15.6587L10.298 17.8343C10.2054 17.4333 10.1564 17.0156 10.1564 16.5863C10.1564 13.5479 12.6097 11.0848 15.636 11.0848C18.6623 11.0848 21.1156 13.5479 21.1156 16.5863C21.1156 17.0128 21.0672 17.428 20.9758 17.8266L28.3254 19.8037L29.0345 17.1467L20.9153 14.9625L28.3172 12.9713L27.6081 10.3143L19.4893 12.4984L24.9077 7.05842L22.9703 5.11336L17.1095 10.9976L19.095 3.55764Z" fill="black"/>
<path d="M20.9681 17.8575C20.7412 18.8206 20.2621 19.6858 19.6049 20.3789L24.9293 25.7247L26.8667 23.7796L20.9681 17.8575Z" fill="black"/>
<path d="M19.5511 20.4348C18.8859 21.1169 18.0453 21.626 17.1026 21.8883L19.0401 29.1478L21.6865 28.4359L19.5511 20.4348Z" fill="black"/>
<path d="M17.0038 21.9149C16.5664 22.0277 16.108 22.0877 15.6355 22.0877C15.1294 22.0877 14.6393 22.0188 14.174 21.8899L12.2348 29.156L14.8812 29.8679L17.0038 21.9149Z" fill="black"/>
<path d="M14.0804 21.8631C13.1521 21.5877 12.3264 21.0722 11.6748 20.3881L6.33726 25.747L8.27459 27.692L14.0804 21.8631Z" fill="black"/>
<path d="M11.6308 20.3408C10.9904 19.6524 10.5239 18.7987 10.3018 17.8505L2.92825 19.8342L3.63736 22.4911L11.6308 20.3408Z" fill="black"/>
</g>
</svg>
