<svg width="10" height="14" viewBox="0 0 10 14" fill="none" xmlns="http://www.w3.org/2000/svg">
<path d="M5.35456 5.6372H8.55456L8.199 7.05942H5.35456V13.4594H3.93233V7.05942H1.08789V5.6372H3.93233V4.306C3.93233 3.03809 4.0646 2.578 4.31207 2.11436C4.55456 1.65626 4.92917 1.28165 5.38727 1.03916C5.85091 0.79169 6.311 0.659424 7.57891 0.659424C7.95011 0.659424 8.2758 0.694979 8.55456 0.766091V2.08165H7.57891C6.6374 2.08165 6.35082 2.13711 6.05856 2.29356C5.84238 2.40876 5.68167 2.56947 5.56647 2.78565C5.41002 3.07791 5.35456 3.36449 5.35456 4.306V5.6372Z" fill="white" stroke="white" stroke-width="0.8"/>
</svg>
