<svg width="120" height="32" viewBox="0 0 120 32" fill="none" xmlns="http://www.w3.org/2000/svg">
<g style="mix-blend-mode:luminosity" opacity="0.3">
<path d="M40.4407 18.5325H44.7099V21.0669H37.1816V7.58854H40.4407V18.5325Z" fill="black"/>
<path d="M47.7128 9.23974C47.1411 9.23974 46.671 9.07334 46.3025 8.74054C45.9467 8.39494 45.7688 7.97254 45.7688 7.47334C45.7688 6.96134 45.9467 6.53894 46.3025 6.20614C46.671 5.86054 47.1411 5.68774 47.7128 5.68774C48.2719 5.68774 48.7293 5.86054 49.0851 6.20614C49.4535 6.53894 49.6378 6.96134 49.6378 7.47334C49.6378 7.97254 49.4535 8.39494 49.0851 8.74054C48.7293 9.07334 48.2719 9.23974 47.7128 9.23974ZM49.3328 10.3533V21.0669H46.0738V10.3533H49.3328Z" fill="black"/>
<path d="M55.5445 10.1997C56.2942 10.1997 56.9485 10.3533 57.5076 10.6605C58.0793 10.9677 58.5177 11.3709 58.8226 11.8701V10.3533H62.0817V21.0477C62.0817 22.0333 61.8848 22.9229 61.4909 23.7165C61.1097 24.5229 60.5189 25.1629 59.7184 25.6365C58.9306 26.1101 57.9459 26.3469 56.7643 26.3469C55.1888 26.3469 53.9118 25.9693 52.9335 25.2141C51.9551 24.4717 51.3961 23.4605 51.2563 22.1805H54.4772C54.5789 22.5901 54.8203 22.9101 55.2015 23.1405C55.5826 23.3837 56.0528 23.5053 56.6118 23.5053C57.2852 23.5053 57.8189 23.3069 58.2128 22.9101C58.6193 22.5261 58.8226 21.9053 58.8226 21.0477V19.5309C58.505 20.0301 58.0666 20.4397 57.5076 20.7597C56.9485 21.0669 56.2942 21.2205 55.5445 21.2205C54.6678 21.2205 53.8737 20.9965 53.1622 20.5485C52.4506 20.0877 51.8852 19.4413 51.4659 18.6093C51.0593 17.7645 50.8561 16.7917 50.8561 15.6909C50.8561 14.5901 51.0593 13.6237 51.4659 12.7917C51.8852 11.9597 52.4506 11.3197 53.1622 10.8717C53.8737 10.4237 54.6678 10.1997 55.5445 10.1997ZM58.8226 15.7101C58.8226 14.8909 58.5939 14.2445 58.1365 13.7709C57.6918 13.2973 57.1455 13.0605 56.4975 13.0605C55.8495 13.0605 55.2968 13.2973 54.8393 13.7709C54.3946 14.2317 54.1723 14.8717 54.1723 15.6909C54.1723 16.5101 54.3946 17.1629 54.8393 17.6493C55.2968 18.1229 55.8495 18.3597 56.4975 18.3597C57.1455 18.3597 57.6918 18.1229 58.1365 17.6493C58.5939 17.1757 58.8226 16.5293 58.8226 15.7101Z" fill="black"/>
<path d="M70.7861 10.2381C72.0058 10.2381 72.9842 10.6477 73.7211 11.4669C74.4581 12.2733 74.8265 13.3869 74.8265 14.8077V21.0669H71.5865V15.2493C71.5865 14.5325 71.4023 13.9757 71.0338 13.5789C70.6654 13.1821 70.1698 12.9837 69.5473 12.9837C68.9247 12.9837 68.4291 13.1821 68.0607 13.5789C67.6922 13.9757 67.508 14.5325 67.508 15.2493V21.0669H64.2489V6.85894H67.508V11.7933C67.8383 11.3197 68.2894 10.9421 68.8611 10.6605C69.4329 10.3789 70.0745 10.2381 70.7861 10.2381Z" fill="black"/>
<path d="M82.828 18.2829V21.0669H81.1699C79.9882 21.0669 79.067 20.7789 78.4063 20.2029C77.7456 19.6141 77.4153 18.6605 77.4153 17.3421V13.0797H76.1193V10.3533H77.4153V7.74214H80.6743V10.3533H82.8089V13.0797H80.6743V17.3805C80.6743 17.7005 80.7506 17.9309 80.903 18.0717C81.0555 18.2125 81.3096 18.2829 81.6654 18.2829H82.828Z" fill="black"/>
<path d="M87.7118 11.8701C88.0167 11.3709 88.4551 10.9677 89.0269 10.6605C89.5986 10.3533 90.253 10.1997 90.9899 10.1997C91.8666 10.1997 92.6607 10.4237 93.3723 10.8717C94.0838 11.3197 94.6429 11.9597 95.0495 12.7917C95.4687 13.6237 95.6784 14.5901 95.6784 15.6909C95.6784 16.7917 95.4687 17.7645 95.0495 18.6093C94.6429 19.4413 94.0838 20.0877 93.3723 20.5485C92.6607 20.9965 91.8666 21.2205 90.9899 21.2205C90.2403 21.2205 89.5859 21.0733 89.0269 20.7789C88.4678 20.4717 88.0295 20.0685 87.7118 19.5693V21.0669H84.4527V6.85894H87.7118V11.8701ZM92.3622 15.6909C92.3622 14.8717 92.1335 14.2317 91.676 13.7709C91.2313 13.2973 90.6786 13.0605 90.0179 13.0605C89.3699 13.0605 88.8172 13.2973 88.3598 13.7709C87.9151 14.2445 87.6927 14.8909 87.6927 15.7101C87.6927 16.5293 87.9151 17.1757 88.3598 17.6493C88.8172 18.1229 89.3699 18.3597 90.0179 18.3597C90.6659 18.3597 91.2186 18.1229 91.676 17.6493C92.1335 17.1629 92.3622 16.5101 92.3622 15.6909Z" fill="black"/>
<path d="M102.039 21.2205C100.997 21.2205 100.056 20.9965 99.2178 20.5485C98.3919 20.1005 97.7376 19.4605 97.2548 18.6285C96.7846 17.7965 96.5496 16.8237 96.5496 15.7101C96.5496 14.6093 96.791 13.6429 97.2738 12.8109C97.7566 11.9661 98.4174 11.3197 99.2559 10.8717C100.095 10.4237 101.035 10.1997 102.077 10.1997C103.119 10.1997 104.059 10.4237 104.897 10.8717C105.736 11.3197 106.397 11.9661 106.879 12.8109C107.362 13.6429 107.604 14.6093 107.604 15.7101C107.604 16.8109 107.356 17.7837 106.86 18.6285C106.378 19.4605 105.711 20.1005 104.859 20.5485C104.021 20.9965 103.08 21.2205 102.039 21.2205ZM102.039 18.3789C102.661 18.3789 103.188 18.1485 103.62 17.6877C104.065 17.2269 104.287 16.5677 104.287 15.7101C104.287 14.8525 104.071 14.1933 103.639 13.7325C103.22 13.2717 102.699 13.0413 102.077 13.0413C101.441 13.0413 100.914 13.2717 100.495 13.7325C100.075 14.1805 99.8658 14.8397 99.8658 15.7101C99.8658 16.5677 100.069 17.2269 100.476 17.6877C100.895 18.1485 101.416 18.3789 102.039 18.3789Z" fill="black"/>
<path d="M115.432 21.0669L113.392 18.0909L111.677 21.0669H108.151L111.658 15.5949L108.056 10.3533H111.715L113.754 13.3101L115.47 10.3533H118.996L115.432 15.7485L119.091 21.0669H115.432Z" fill="black"/>
<path fill-rule="evenodd" clip-rule="evenodd" d="M15.3642 1.47825C15.0077 1.40439 14.64 1.40439 14.2835 1.47825C13.8714 1.56363 13.5031 1.77146 13.2103 1.93669L13.1305 1.98161L3.20613 7.53597C3.17869 7.55132 3.15042 7.56701 3.12145 7.58309C2.81147 7.75508 2.42172 7.97135 2.12242 8.29854C1.86364 8.58143 1.66781 8.91671 1.54802 9.28198C1.40946 9.70445 1.41108 10.1527 1.41237 10.5092C1.41249 10.5425 1.4126 10.575 1.4126 10.6067V21.5734C1.4126 21.605 1.41249 21.6375 1.41237 21.6708C1.41108 22.0273 1.40946 22.4756 1.54802 22.8981C1.66781 23.2633 1.86365 23.5986 2.12242 23.8815C2.42172 24.2087 2.81148 24.425 3.12145 24.597C3.15042 24.613 3.1787 24.6287 3.20613 24.6441L13.1305 30.1984L13.2103 30.2433C13.5031 30.4086 13.8714 30.6164 14.2835 30.7018C14.64 30.7756 15.0077 30.7756 15.3642 30.7018C15.7763 30.6164 16.1446 30.4086 16.4375 30.2433L16.5173 30.1984L26.4416 24.6441C26.4538 24.6373 26.466 24.6304 26.4785 24.6235C26.4942 24.6148 26.5101 24.6059 26.5263 24.597C26.8363 24.425 27.226 24.2087 27.5253 23.8815C27.7841 23.5986 27.9799 23.2633 28.0997 22.8981C28.2383 22.4756 28.2367 22.0273 28.2354 21.6708C28.2353 21.6375 28.2351 21.605 28.2351 21.5734V10.6067C28.2351 10.575 28.2353 10.5425 28.2354 10.5092C28.2367 10.1527 28.2383 9.70445 28.0997 9.28197C27.9799 8.91671 27.7841 8.58143 27.5253 8.29854C27.226 7.97134 26.8363 7.75508 26.5263 7.58308L26.5252 7.58247C26.4966 7.56661 26.4687 7.55112 26.4416 7.53596L16.5173 1.9816L16.4375 1.93668C16.1446 1.77146 15.7763 1.56363 15.3642 1.47825ZM14.4331 4.34368C14.6363 4.22994 14.7401 4.17247 14.8175 4.13486L14.8239 4.13177L14.8303 4.13486C14.9077 4.17246 15.0114 4.22994 15.2147 4.34368L24.1324 9.33468L14.8238 14.5444L5.5153 9.33471L14.4331 4.34368ZM4.09486 11.6308L13.4827 16.8849L13.4827 27.3045L4.50875 22.282C4.29423 22.1619 4.18471 22.1 4.10787 22.0507L4.10138 22.0465L4.10089 22.0387C4.09542 21.9471 4.09486 21.8206 4.09486 21.5734V11.6308Z" fill="black"/>
</g>
</svg>
