<svg width="121" height="32" viewBox="0 0 121 32" fill="none" xmlns="http://www.w3.org/2000/svg">
<g style="mix-blend-mode:luminosity" opacity="0.3">
<path d="M44.8474 21.5639C48.2322 21.5639 50.5174 19.783 50.5174 16.9378C50.5174 10.9217 42.5837 13.4845 42.5837 10.3136C42.5837 9.42313 43.3814 8.815 44.6534 8.815C46.0978 8.815 47.0033 9.59688 47.1111 10.7914H50.194C50.1078 7.90281 47.9088 6.01328 44.6534 6.01328C41.592 6.01328 39.4361 7.79422 39.4361 10.3136C39.4361 16.2863 47.262 14.0058 47.262 16.9813C47.262 18.1324 46.2919 18.7405 44.8474 18.7405C43.252 18.7405 42.2387 17.7631 42.1094 16.2211H39.0049C39.1342 19.4572 41.4195 21.5639 44.8474 21.5639Z" fill="#222222"/>
<path d="M51.2506 25.8208H54.2473V20.4128C54.8294 21.1513 55.8858 21.5639 57.1147 21.5639C60.2407 21.5639 62.3535 19.3269 62.3535 15.917C62.3535 12.5072 60.4132 10.2702 57.3734 10.2702C55.9721 10.2702 54.8941 10.7914 54.2473 11.6384V10.4439H51.2506V25.8208ZM56.7482 18.9577C55.1312 18.9577 54.0749 17.7414 54.0749 15.917C54.0749 14.0709 55.1312 12.8547 56.7482 12.8547C58.322 12.8547 59.3999 14.0709 59.3999 15.917C59.3999 17.7414 58.322 18.9577 56.7482 18.9577Z" fill="#222222"/>
<path d="M63.0786 21.3902H66.0753V15.3958C66.0753 13.9841 67.0024 12.9633 68.3175 12.9633C69.5679 12.9633 70.4303 13.9189 70.4303 15.2438V21.3902H73.427V14.5705C73.427 12.0511 71.8316 10.2702 69.3954 10.2702C67.8863 10.2702 66.7006 10.9 66.0753 11.9642V5.6875H63.0786V21.3902Z" fill="#222222"/>
<path d="M81.8101 17.6763C81.573 18.6102 80.7753 19.088 79.568 19.088C78.0588 19.088 77.0887 18.1324 76.8731 16.5903H84.6775C84.699 16.3514 84.7206 16.0256 84.7206 15.613C84.7206 13.1153 83.1899 10.2702 79.3524 10.2702C75.6658 10.2702 73.9842 13.1153 73.9842 15.8953C73.9842 18.6536 75.8814 21.5639 79.568 21.5639C82.2413 21.5639 84.311 20.0436 84.7421 17.6763H81.8101ZM79.3524 12.4855C80.7968 12.4855 81.6376 13.4628 81.7239 14.6791H76.9162C77.1749 13.1588 77.9942 12.4855 79.3524 12.4855Z" fill="#222222"/>
<path d="M92.5799 12.9633V10.4439H91.0337C89.7186 10.4439 88.8993 10.9 88.3172 12.2683V10.4439H85.299V21.3902H88.3172V16.0691C88.3172 14.2013 88.9856 12.9633 90.4732 12.9633H92.5799Z" fill="#222222"/>
<path d="M102.928 10.4439H99.91V16.4383C99.91 17.8283 98.9829 18.8708 97.6678 18.8708C96.439 18.8708 95.5766 17.9152 95.5766 16.5903V10.4439H92.5799V17.2636C92.5799 19.7613 94.1753 21.5639 96.6114 21.5639C98.099 21.5639 99.3063 20.9124 99.91 19.8699V21.3902H102.928V10.4439Z" fill="#222222"/>
<path d="M104.222 21.3902H107.219V5.6875H104.222V21.3902Z" fill="#222222"/>
<path d="M115.774 17.6763C115.537 18.6102 114.739 19.088 113.532 19.088C112.023 19.088 111.053 18.1324 110.837 16.5903H118.641C118.663 16.3514 118.685 16.0256 118.685 15.613C118.685 13.1153 117.154 10.2702 113.316 10.2702C109.63 10.2702 107.948 13.1153 107.948 15.8953C107.948 18.6536 109.845 21.5639 113.532 21.5639C116.205 21.5639 118.275 20.0436 118.706 17.6763H115.774ZM113.316 12.4855C114.761 12.4855 115.602 13.4628 115.688 14.6791H110.88C111.139 13.1588 111.958 12.4855 113.316 12.4855Z" fill="#222222"/>
<path fill-rule="evenodd" clip-rule="evenodd" d="M17.6022 27.2893C23.8398 27.2893 28.8963 22.1953 28.8963 15.9115C28.8963 9.62773 23.8398 4.53372 17.6022 4.53372C11.3646 4.53372 6.30808 9.62773 6.30808 15.9115C6.30808 22.1953 11.3646 27.2893 17.6022 27.2893ZM17.6022 29.4226C25.0093 29.4226 31.014 23.3735 31.014 15.9115C31.014 8.44952 25.0093 2.40039 17.6022 2.40039C10.1951 2.40039 4.19043 8.44952 4.19043 15.9115C4.19043 23.3735 10.1951 29.4226 17.6022 29.4226Z" fill="black"/>
<path fill-rule="evenodd" clip-rule="evenodd" d="M14.3311 24.5915C16.6347 23.9948 19.3103 22.4629 21.7083 20.0471C24.1064 17.6313 25.627 14.9358 26.2193 12.6152C26.8254 10.241 26.3914 8.67428 25.588 7.86485C24.7845 7.05542 23.2293 6.61827 20.8725 7.2288C18.569 7.82553 15.8933 9.35741 13.4953 11.7732C11.0972 14.189 9.57663 16.8845 8.98429 19.2051C8.37825 21.5793 8.81219 23.146 9.61566 23.9555C10.4191 24.7649 11.9743 25.202 14.3311 24.5915ZM8.11826 25.4639C11.2132 28.5818 17.9681 26.832 23.2057 21.5556C28.4433 16.2792 30.1803 9.47424 27.0854 6.35636C23.9904 3.23848 17.2355 4.98832 11.9979 10.2647C6.76028 15.5411 5.0233 22.3461 8.11826 25.4639Z" fill="black"/>
<path fill-rule="evenodd" clip-rule="evenodd" d="M26.2196 19.2033C25.6273 16.8827 24.1067 14.1873 21.7086 11.7714C19.3106 9.35563 16.635 7.82375 14.3314 7.22702C11.9746 6.61649 10.4194 7.05364 9.61597 7.86307C8.81249 8.6725 8.37855 10.2392 8.98459 12.6134C9.57693 14.9341 11.0975 17.6295 13.4956 20.0453C15.8937 22.4611 18.5693 23.993 20.8728 24.5897C23.2296 25.2002 24.7848 24.7631 25.5883 23.9537C26.3917 23.1442 26.8257 21.5776 26.2196 19.2033ZM27.0857 25.4622C30.1806 22.3443 28.4436 15.5394 23.206 10.2629C17.9684 4.98653 11.2135 3.2367 8.11856 6.35458C5.02361 9.47246 6.76058 16.2774 11.9982 21.5538C17.2358 26.8302 23.9907 28.58 27.0857 25.4622Z" fill="black"/>
</g>
</svg>
