<svg width="121" height="32" viewBox="0 0 121 32" fill="none" xmlns="http://www.w3.org/2000/svg">
<g style="mix-blend-mode:luminosity" opacity="0.3">
<path d="M40.107 23.4681C41.7267 23.4681 43.0585 22.6179 43.4724 21.3426V23.3203H45.866V18.3299C45.866 17.2024 45.0021 16.2413 43.8323 16.2413H40.4129V18.3299H42.8425C43.1484 18.3299 43.3464 18.5332 43.3464 18.8474C43.3464 20.0488 41.7987 21.2132 40.2329 21.2132C38.1453 21.2132 36.4896 19.5312 36.4896 16.8512C36.4896 14.1712 38.1453 12.6186 40.2869 12.6186C41.9067 12.6186 43.0225 13.5243 43.2204 14.9105H45.902C45.74 12.138 43.4724 10.2343 40.3049 10.2343C36.9755 10.2343 33.916 12.4338 33.916 16.8512C33.916 21.2687 36.8855 23.4681 40.107 23.4681Z" fill="black"/>
<path d="M46.8935 23.3203H49.3951V9.95703H46.8935V23.3203Z" fill="black"/>
<path d="M54.7912 23.4681C57.5807 23.4681 59.5784 21.435 59.5784 18.6625C59.5784 15.8901 57.5807 13.857 54.7912 13.857C52.0017 13.857 50.004 15.8901 50.004 18.6625C50.004 21.435 52.0017 23.4681 54.7912 23.4681ZM54.7912 21.2502C53.4414 21.2502 52.5236 20.1966 52.5236 18.6625C52.5236 17.11 53.4414 16.0564 54.7912 16.0564C56.141 16.0564 57.0588 17.11 57.0588 18.6625C57.0588 20.1966 56.141 21.2502 54.7912 21.2502Z" fill="black"/>
<path d="M65.176 23.4681C67.8575 23.4681 69.4593 21.5644 69.4593 18.6625C69.4593 15.7607 67.8575 13.857 65.212 13.857C64.0782 13.857 63.1963 14.3005 62.6924 14.9844V9.95703H60.1908V23.3203H62.6924V22.3037C63.1963 23.0245 64.1322 23.4681 65.176 23.4681ZM64.7801 21.2502C63.4303 21.2502 62.5484 20.2151 62.5484 18.6625C62.5484 17.0915 63.4303 16.0564 64.7801 16.0564C66.0938 16.0564 66.9937 17.0915 66.9937 18.6625C66.9937 20.2151 66.0938 21.2502 64.7801 21.2502Z" fill="black"/>
<path d="M73.6468 13.857C71.1632 13.857 69.6875 15.3541 69.5795 17.2209H71.8111C71.8471 16.4446 72.405 15.7422 73.5028 15.7422C74.5286 15.7422 75.1225 16.2782 75.1225 17.0545C75.1225 17.4427 74.8886 17.7384 74.4386 17.7384H72.9089C70.9292 17.7384 69.5975 18.8474 69.5975 20.6772C69.5975 22.2667 70.8033 23.4681 72.567 23.4681C73.8088 23.4681 74.8166 22.8952 75.1225 22.0265V23.3203H77.6061V17.3318C77.6061 15.2247 75.9324 13.857 73.6468 13.857ZM73.1969 21.6014C72.495 21.6014 71.9911 21.1762 71.9911 20.5663C71.9911 19.8455 72.531 19.3649 73.2868 19.3649H75.1225V19.4943C75.1225 20.6772 74.4207 21.6014 73.1969 21.6014Z" fill="black"/>
<path d="M78.5674 23.3203H81.069V9.95703H78.5674V23.3203Z" fill="black"/>
<path d="M82.3978 23.3203H87.5449C90.2085 23.3203 92.0441 21.9156 92.0441 19.4573C92.0441 17.7569 91.0723 16.7218 89.9205 16.2597C90.6584 15.8531 91.3963 14.929 91.3963 13.7091C91.3963 11.5466 89.6866 10.3821 87.4009 10.3821H82.3978V23.3203ZM85.0613 15.3171V12.5816H87.149C88.3548 12.5816 88.8947 13.0807 88.8947 13.9494C88.8947 14.8181 88.3548 15.3171 87.203 15.3171H85.0613ZM85.0613 20.9175V17.6645H87.311C88.8047 17.6645 89.4706 18.2559 89.4706 19.3095C89.4706 20.363 88.8047 20.9175 87.311 20.9175H85.0613Z" fill="black"/>
<path d="M96.396 13.857C93.9125 13.857 92.4367 15.3541 92.3287 17.2209H94.5603C94.5963 16.4446 95.1542 15.7422 96.2521 15.7422C97.2779 15.7422 97.8718 16.2782 97.8718 17.0545C97.8718 17.4427 97.6378 17.7384 97.1879 17.7384H95.6582C93.6785 17.7384 92.3467 18.8474 92.3467 20.6772C92.3467 22.2667 93.5525 23.4681 95.3162 23.4681C96.558 23.4681 97.5658 22.8952 97.8718 22.0265V23.3203H100.355V17.3318C100.355 15.2247 98.6816 13.857 96.396 13.857ZM95.9461 21.6014C95.2442 21.6014 94.7403 21.1762 94.7403 20.5663C94.7403 19.8455 95.2802 19.3649 96.0361 19.3649H97.8718V19.4943C97.8718 20.6772 97.1699 21.6014 95.9461 21.6014Z" fill="black"/>
<path d="M101.173 23.3203H103.692V18.219C103.692 17.0176 104.466 16.1489 105.564 16.1489C106.608 16.1489 107.31 16.9621 107.31 18.0896V23.3203H109.829V17.5166C109.829 15.3726 108.497 13.857 106.446 13.857C105.204 13.857 104.196 14.393 103.692 15.2986V14.0048H101.173V23.3203Z" fill="black"/>
<path d="M117.01 23.3203H120.034L116.128 17.6645L119.746 14.0048H116.578L113.429 17.1839V9.95703H110.909V23.3203H113.429V20.4L114.437 19.3834L117.01 23.3203Z" fill="black"/>
<path d="M20.1242 2.13477H9.30638L0.597656 10.908V21.806L9.30638 30.5792H20.1242L28.8329 21.806V10.908L20.1242 2.13477ZM10.8032 21.9431L5.22417 16.3227L10.8032 10.7024C12.9123 8.5776 16.3822 8.5776 18.4914 10.7024L24.0704 16.3227L18.4914 21.9431C16.3822 24.0678 12.9804 24.0678 10.8032 21.9431Z" fill="#222222"/>
</g>
</svg>
